<svg width="32" height="32" viewBox="0 0 32 32" fill="none" xmlns="http://www.w3.org/2000/svg">
<rect width="32" height="32" rx="4" fill="#F7F9FA"/>
<path d="M19.4285 10.8571H12.5714V13.1429H19.4285V10.8571ZM19.9999 16C19.8484 16 19.703 15.9398 19.5959 15.8326C19.4887 15.7255 19.4285 15.5801 19.4285 15.4286C19.4285 15.277 19.4887 15.1317 19.5959 15.0245C19.703 14.9174 19.8484 14.8571 19.9999 14.8571C20.1515 14.8571 20.2968 14.9174 20.404 15.0245C20.5112 15.1317 20.5714 15.277 20.5714 15.4286C20.5714 15.5801 20.5112 15.7255 20.404 15.8326C20.2968 15.9398 20.1515 16 19.9999 16ZM18.2856 20H13.7142V17.1429H18.2856V20ZM19.9999 13.7143H11.9999C11.5453 13.7143 11.1092 13.8949 10.7877 14.2164C10.4663 14.5379 10.2856 14.9739 10.2856 15.4286V18.8571H12.5714V21.1429H19.4285V18.8571H21.7142V15.4286C21.7142 14.9739 21.5336 14.5379 21.2121 14.2164C20.8906 13.8949 20.4546 13.7143 19.9999 13.7143Z" fill="#78909C"/>
</svg>
